<?xml version="1.0" encoding="UTF-8"?>
<svg id="Layer_2" data-name="Layer 2" xmlns="http://www.w3.org/2000/svg" viewBox="0 0 1356.13 1992.17">
  <defs>
    <style>
      .cls-1 {
        fill: #fffffd;
      }

      .cls-1, .cls-2 {
        stroke-width: 0px;
      }

      .cls-2 {
        fill: #fefefe;
      }
    </style>
  </defs>
  <g id="Layer_1-2" data-name="Layer 1">
    <g>
      <g>
        <path class="cls-1" d="M9.33,1877.36v-193.74c0-15.78-9.33-17.58-9.33-27.27s4.31-11.48,13.27-12.91c9.69-1.8,39.11-6.82,51.67-8.61,12.56-1.79,16.86,3.59,16.86,13.64v72.12c10.76-10.05,24.76-16.5,43.77-16.5,48.79,0,68.53,48.43,68.53,96.87,0,52.38-27.27,94.72-75.34,94.72-36.24,0-52.38-12.91-68.17-12.91-14.71,0-14.35,12.91-28.34,12.91-7.54,0-12.92-4.67-12.92-18.3ZM101.53,1847.58c11.12,0,19.02-15.79,19.02-49.15,0-30.14-7.54-47.71-19.02-47.71-10.76,0-19.73,16.86-19.73,49.15s7.89,47.71,19.73,47.71Z"/>
        <path class="cls-1" d="M207.75,1878.8c0-9.69,9.33-15.07,9.33-30.85v-94.72c0-15.78-9.33-17.58-9.33-27.27s4.66-11.48,13.27-12.91c10.05-2.15,39.46-6.82,52.02-8.61,12.2-1.79,16.86,3.59,16.86,13.64v129.88c0,15.78,9.33,21.17,9.33,30.85s-2.87,12.56-8.97,12.56h-73.55c-5.74,0-8.97-3.23-8.97-12.56ZM252.95,1614.73c22.96,0,41.62,17.58,41.62,39.11s-18.66,39.11-41.62,39.11-41.62-17.58-41.62-39.11,18.66-39.11,41.62-39.11Z"/>
        <path class="cls-1" d="M303.91,1947.32c0-18.65,10.4-29.78,25.47-34.08-14.35-9.33-18.3-21.17-18.3-34.8,0-20.45,16.5-34.8,35.16-43.05-20.81-12.2-32.65-33.37-32.65-59.92,0-42.33,30.49-71.39,79.65-71.39,8.61,0,16.86,1.07,24.4,2.87,16.14-3.95,42.7-10.4,49.15-12.2,9.33-2.15,13.27,2.51,13.27,9.33v10.76c0,4.67-1.43,8.97-9.69,9.69-2.51,0-9.33.36-17.22,1.08,12.92,12.56,19.73,29.78,19.73,49.87,0,42.7-30.5,71.4-79.65,71.4-6.1,0-11.84-.36-17.58-1.07-1.08.72-1.79,1.79-1.79,3.23,0,7.54,14.71,8.61,34.44,8.61,41.98,0,76.78,2.51,76.78,52.38,0,44.49-33.37,82.16-95.79,82.16-51.3,0-85.39-17.22-85.39-44.85ZM393.24,1949.83c14.35,0,26.19-6.82,26.19-16.5,0-7.17-3.23-8.97-23.68-8.97h-31.93c-3.95,22.96,10.05,25.47,29.42,25.47ZM393.24,1818.16c10.05,0,13.99-19.02,13.99-42.7s-3.95-42.69-13.99-42.69-13.63,19.01-13.63,42.69,3.59,42.7,13.63,42.7Z"/>
        <path class="cls-1" d="M577.31,1833.23v-89.33h-4.66c-11.48,0-17.22-7.54-17.22-17.94s5.74-17.94,17.22-17.94h4.66c17.58,0,25.47-4.31,33.01-28.71,4.67-15.43,39.47-14.35,39.47,3.23v25.47h12.92c11.48,0,17.58,7.53,17.58,17.94s-6.1,17.94-17.58,17.94h-12.92v81.09c0,11.48,2.15,17.22,10.76,17.22s17.94-8.61,26.19-2.87c12.92,9.33,1.79,56.33-52.02,56.33-37.31,0-57.4-25.83-57.4-62.43Z"/>
        <path class="cls-1" d="M743.44,1876.64c-2.51-5.38-27.98-83.59-41.62-124.86-5.02-16.5-14.35-21.53-14.35-31.21s3.23-12.56,8.97-12.56h73.91c6.1,0,8.97,3.23,8.97,12.56s-8.97,15.78-5.38,31.21l13.99,60.64s24.4-71.76,28.7-83.24c4.31-11.48,7.18-21.17,20.45-21.17s16.15,8.25,19.73,19.73c3.23,11.48,21.53,84.67,21.53,84.67l18.66-60.64c5.02-16.14-5.38-21.53-5.38-31.21s2.87-12.56,8.97-12.56h42.69c6.1,0,8.97,3.23,8.97,12.56s-11.12,13.63-17.22,31.21c-16.15,46.64-41.62,119.47-43.41,124.5-3.23,8.25-10.76,15.07-24.4,15.07h-7.54c-10.76,0-20.45-4.67-25.11-14.71-1.08-2.87-15.79-50.95-15.79-50.95,0,0-17.22,47.36-18.66,50.58-3.95,7.9-10.4,15.07-23.68,15.07h-7.54c-10.76,0-20.81-4.67-25.47-14.71Z"/>
        <path class="cls-1" d="M962.31,1878.8c0-9.69,9.33-15.07,9.33-30.85v-94.72c0-15.78-9.33-17.58-9.33-27.27s4.66-11.48,13.27-12.91c10.05-2.15,39.46-6.82,52.02-8.61,12.2-1.79,16.86,3.59,16.86,13.64v129.88c0,15.78,9.33,21.17,9.33,30.85s-2.87,12.56-8.97,12.56h-73.55c-5.74,0-8.97-3.23-8.97-12.56ZM1007.52,1614.73c22.96,0,41.62,17.58,41.62,39.11s-18.66,39.11-41.62,39.11-41.62-17.58-41.62-39.11,18.66-39.11,41.62-39.11Z"/>
        <path class="cls-1" d="M1068.16,1854.76c0-22.6,3.23-32.29,14.71-33.37,10.76-1.07,16.5,8.25,24.76,20.81,7.54,12.2,10.76,21.17,20.45,22.61,10.4,1.79,15.43-5.02,15.43-14.35,0-27.27-71.4-17.22-71.4-82.16,0-36.95,25.11-64.22,71.4-64.22,33.37,0,68.17,12.91,68.17,33.37s-5.02,30.85-14.35,31.57c-10.4,1.08-19.37-7.89-26.55-18.66-5.02-7.53-13.27-15.78-21.52-16.14-9.33-.36-12.56,7.17-12.56,13.99,0,21.89,78.21,21.17,78.21,82.52,0,37.67-27.63,64.94-75.34,64.94-38.03,0-71.4-11.84-71.4-40.9Z"/>
        <path class="cls-1" d="M1241.81,1833.23v-89.33h-4.66c-11.48,0-17.22-7.54-17.22-17.94s5.74-17.94,17.22-17.94h4.66c17.58,0,25.47-4.31,33.01-28.71,4.67-15.43,39.47-14.35,39.47,3.23v25.47h12.92c11.48,0,17.58,7.53,17.58,17.94s-6.1,17.94-17.58,17.94h-12.92v81.09c0,11.48,2.15,17.22,10.76,17.22s17.94-8.61,26.19-2.87c12.92,9.33,1.79,56.33-52.02,56.33-37.31,0-57.4-25.83-57.4-62.43Z"/>
      </g>
      <path class="cls-2" d="M1315.85,280.4H199.98c-22.25,0-40.28,18.03-40.28,40.28v955.71c0,22.25,18.03,40.28,40.28,40.28h955.71c22.25,0,40.28-18.03,40.28-40.28V483.99c0-22.25-18.03-40.28-40.28-40.28H363.3c-22.25,0-40.28,18.03-40.28,40.28v629.07c0,22.25,18.03,40.28,40.28,40.28h629.08c22.25,0,40.28-18.03,40.28-40.28v-478.26c0-22.25-18.03-40.28-40.28-40.28h-478.26c-22.25,0-40.28,18.03-40.28,40.28v327.45c0,22.25,18.03,40.28,40.28,40.28h327.45c22.25,0,40.28-18.03,40.28-40.28v-190.99c0-22.25-18.03-40.28-40.28-40.28h-227.24v80.56h59.52v110.43h-119.46v-246.89h397.7v397.7H403.58v-548.51h711.83v711.83H240.26V360.96h1035.3v1034.66H80.56V0H0v1435.9c0,22.25,18.03,40.28,40.28,40.28h1275.56c22.25,0,40.28-18.03,40.28-40.28V320.68c0-22.25-18.03-40.28-40.28-40.28ZM754.41,811.55h46.87v110.43h-46.87v-110.43Z"/>
    </g>
  </g>
</svg>