<?xml version="1.0" encoding="UTF-8"?>
<svg id="Layer_2" data-name="Layer 2" xmlns="http://www.w3.org/2000/svg" viewBox="0 0 530.09 577.02">
  <defs>
    <style>
      .cls-1 {
        fill: #fffffd;
        stroke-width: 0px;
      }
    </style>
  </defs>
  <g id="Layer_1-2" data-name="Layer 1">
    <path class="cls-1" d="M514.34,109.6H78.17c-8.7,0-15.75,7.05-15.75,15.75v373.57c0,8.7,7.05,15.75,15.75,15.75h373.57c8.7,0,15.75-7.05,15.75-15.75V189.19c0-8.7-7.05-15.75-15.75-15.75H142.01c-8.7,0-15.75,7.05-15.75,15.75v245.9c0,8.7,7.05,15.75,15.75,15.75h245.9c8.7,0,15.75-7.05,15.75-15.75v-186.95c0-8.7-7.05-15.75-15.75-15.75h-186.95c-8.7,0-15.75,7.05-15.75,15.75v128c0,8.7,7.05,15.75,15.75,15.75h128c8.7,0,15.75-7.05,15.75-15.75v-74.66c0-8.7-7.05-15.75-15.75-15.75h-88.82v31.49h23.27v43.16h-46.69v-96.5h155.46v155.46h-214.41v-214.41h278.24v278.24H93.91V141.09h404.68v404.43H31.49V0H0v561.27c0,8.7,7.05,15.75,15.75,15.75h498.6c8.7,0,15.75-7.05,15.75-15.75V125.35c0-8.7-7.05-15.75-15.75-15.75ZM294.89,317.22h18.32v43.16h-18.32v-43.16Z"/>
  </g>
</svg>