<?xml version="1.0" encoding="UTF-8"?>
<svg id="Layer_2" data-name="Layer 2" xmlns="http://www.w3.org/2000/svg" version="1.1" viewBox="0 0 530.1 577">
  <defs>
    <style>
      .cls-1 {
        fill: #1374f2;
        stroke-width: 0px;
      }
    </style>
  </defs>
  <g id="Layer_1-2" data-name="Layer 1-2">
    <path class="cls-1" d="M514.3,109.6H78.2c-8.7,0-15.8,7.1-15.8,15.8v373.6c0,8.7,7.1,15.8,15.8,15.8h373.6c8.7,0,15.8-7,15.8-15.8V189.2c0-8.7-7-15.8-15.8-15.8H142c-8.7,0-15.8,7.1-15.8,15.8v245.9c0,8.7,7.1,15.8,15.8,15.8h245.9c8.7,0,15.8-7,15.8-15.8v-186.9c0-8.7-7-15.8-15.8-15.8h-186.9c-8.7,0-15.8,7.1-15.8,15.8v128c0,8.7,7.1,15.8,15.8,15.8h128c8.7,0,15.8-7,15.8-15.8v-74.7c0-8.7-7-15.8-15.8-15.8h-88.8v31.5h23.3v43.2h-46.7v-96.5h155.5v155.5h-214.4v-214.4h278.2v278.2H93.9V141.1h404.7v404.4H31.5V0H0v561.3c0,8.7,7.1,15.8,15.8,15.8h498.6c8.7,0,15.8-7,15.8-15.8V125.3c0-8.7-7-15.8-15.8-15.8h0ZM294.9,317.2h18.3v43.2h-18.3v-43.2Z"/>
  </g>
</svg>